<svg id="preset1" xmlns="http://www.w3.org/2000/svg" width="104" height="35" viewBox="0 0 104 35"><defs><style>.cls-1{fill:#fc6f5c;}.cls-2{fill:#fff;}</style></defs><title>logo</title><path class="cls-1" d="M101,0H3A3,3,0,0,0,0,3V32a3,3,0,0,0,3,3h98a3,3,0,0,0,3-3V3A3,3,0,0,0,101,0ZM54,33H5a3,3,0,0,1-3-3V5A3,3,0,0,1,5,2H54Z"/><path class="cls-2" d="M74.74,27.08V17l-3.21,7.1H68.72L65.51,17v10.1H60.24V7.92H66l4.13,9,4.16-9H80V27.08Z"/><path class="cls-2" d="M97,22.5v4.59H83.3V7.92H96.72V12.5H88.56v2.7h7v4.27h-7v3Z"/><path class="cls-1" d="M15.22,7.89l3.43,8.29,3.51-8.29h5.72L21.26,20.71v6.34H16v-6.4L9.52,7.89Z"/><path class="cls-1" d="M36.71,27.22a9.22,9.22,0,0,1-4-.84,9.84,9.84,0,0,1-3.05-2.2,10,10,0,0,1-2-3.12,9.65,9.65,0,0,1-.7-3.62,9.41,9.41,0,0,1,.73-3.64,9.67,9.67,0,0,1,2-3.09,9.94,9.94,0,0,1,3.1-2.13,9.59,9.59,0,0,1,3.93-.8,9.23,9.23,0,0,1,4,.84,9.71,9.71,0,0,1,3.05,2.21,9.94,9.94,0,0,1,2,3.13,9.76,9.76,0,0,1,.69,3.59,9.33,9.33,0,0,1-.73,3.63,9.84,9.84,0,0,1-2,3.08,10,10,0,0,1-3.09,2.15A9.43,9.43,0,0,1,36.71,27.22ZM32.36,17.5a6.52,6.52,0,0,0,.27,1.88A4.9,4.9,0,0,0,33.44,21a4.08,4.08,0,0,0,1.36,1.13,4.61,4.61,0,0,0,3.93,0,4,4,0,0,0,1.36-1.16,5,5,0,0,0,.78-1.63,6.91,6.91,0,0,0,.26-1.86,6.52,6.52,0,0,0-.27-1.88A4.63,4.63,0,0,0,40,14a4.17,4.17,0,0,0-1.38-1.11,4.22,4.22,0,0,0-1.93-.42,4.16,4.16,0,0,0-2,.43A4,4,0,0,0,33.41,14a4.89,4.89,0,0,0-.8,1.62A6.73,6.73,0,0,0,32.36,17.5Z"/></svg>